<svg width="98" height="50" viewBox="0 0 98 50" fill="none" xmlns="http://www.w3.org/2000/svg">
<path d="M53.4917 1.82983L54.4594 4.42793L55.425 1.82983H56.1783V5.21828H55.5969V4.10022L55.6542 2.60519L54.6631 5.21614H54.245L53.2561 2.60734L53.3134 4.10022V5.21828H52.7319V1.82983H53.4917Z" fill="#282828"/>
<path d="M57.4855 5.21982H56.9041V1.82922H57.4855V5.21982Z" fill="#282828"/>
<path d="M60.8664 5.21982H60.2828L58.7867 2.81449V5.21982H58.2031V1.82922H58.7867L60.2871 4.24312V1.82922H60.8664V5.21982Z" fill="#282828"/>
<path d="M62.1713 5.21982H61.5898V1.82922H62.1713V5.21982Z" fill="#282828"/>
<path d="M63.6462 1.82922L64.6139 4.42732L65.5795 1.82922H66.3329V5.21767H65.7514V4.09961L65.8087 2.60458L64.8177 5.21553H64.3996L63.4107 2.60673L63.468 4.09961V5.21767H62.8865V1.82922H63.6462Z" fill="#282828"/>
<path d="M68.9051 4.42946H67.6042L67.3325 5.21767H66.7256L67.9946 1.82922H68.5188L69.79 5.21767H69.1809L68.9051 4.42946ZM67.7676 3.95397H68.7416L68.2557 2.54889L67.7676 3.95397Z" fill="#282828"/>
<path d="M70.7513 4.7486H72.2751V5.21982H70.1677V1.82922H70.7513V4.7486Z" fill="#282828"/>
<path d="M73.3383 5.21982H72.7568V1.82922H73.3383V5.21982Z" fill="#282828"/>
<path d="M75.8128 4.34587C75.8128 4.19593 75.7597 4.08241 75.6578 4.00102C75.5538 3.91963 75.3671 3.83824 75.0955 3.75685C74.8238 3.67546 74.6095 3.58336 74.4503 3.48269C74.1447 3.28778 73.9919 3.03504 73.9919 2.72446C73.9919 2.45245 74.1023 2.22541 74.323 2.04977C74.5437 1.872 74.8302 1.78418 75.1825 1.78418C75.4159 1.78418 75.6239 1.82702 75.8085 1.91483C75.9931 2.00265 76.1353 2.12474 76.2393 2.28538C76.3433 2.44602 76.3964 2.6238 76.3964 2.81871H75.8149C75.8149 2.64093 75.7597 2.50385 75.6493 2.40318C75.539 2.30251 75.382 2.25325 75.1782 2.25325C74.9872 2.25325 74.8387 2.29395 74.7347 2.37748C74.6286 2.45887 74.5776 2.57453 74.5776 2.72232C74.5776 2.84655 74.6349 2.94936 74.7474 3.03289C74.8599 3.11643 75.0488 3.19568 75.3098 3.27493C75.5708 3.35418 75.7809 3.44199 75.9401 3.54266C76.0992 3.64333 76.2138 3.75685 76.2881 3.8875C76.3624 4.01816 76.3985 4.16809 76.3985 4.34158C76.3985 4.62431 76.2924 4.84921 76.0759 5.01627C75.8616 5.18334 75.5708 5.26687 75.2037 5.26687C74.9596 5.26687 74.7368 5.22189 74.5331 5.12979C74.3293 5.03983 74.1702 4.91346 74.0577 4.75282C73.9452 4.59218 73.8879 4.40584 73.8879 4.19379H74.4715C74.4715 4.38656 74.5352 4.53435 74.6604 4.64144C74.7856 4.7464 74.9681 4.79994 75.2016 4.79994C75.4053 4.79994 75.5581 4.75925 75.66 4.67571C75.7597 4.59218 75.8128 4.48295 75.8128 4.34587Z" fill="#282828"/>
<path d="M79.3335 2.30472H78.2873V5.21982H77.7079V2.30472H76.6702V1.82922H79.3335V2.30472Z" fill="#282828"/>
<path d="M54.6969 12.0294H53.3175V13.0725H54.9303V13.5437H52.7339V10.1531H54.9134V10.6286H53.3175V11.5646H54.6969V12.0294Z" fill="#282828"/>
<path d="M55.9894 13.0717H57.5131V13.5429H55.4058V10.1523H55.9894V13.0717Z" fill="#282828"/>
<path d="M59.9239 12.0286H58.5445V13.0717H60.1574V13.5429H57.9609V10.1523H60.1404V10.6278H58.5445V11.5638H59.9239V12.0286Z" fill="#282828"/>
<path d="M63.2045 13.1018C63.0836 13.2625 62.9159 13.3824 62.6995 13.466C62.483 13.5473 62.2389 13.5902 61.9652 13.5902C61.6829 13.5902 61.4346 13.5259 61.2182 13.3974C61.0017 13.2689 60.8341 13.0847 60.7173 12.8448C60.5985 12.6049 60.5391 12.3243 60.5327 12.0052V11.7375C60.5327 11.2255 60.6537 10.825 60.8977 10.538C61.1418 10.251 61.4792 10.1053 61.9143 10.1053C62.2878 10.1053 62.5849 10.1996 62.8034 10.3859C63.0242 10.5723 63.1557 10.8422 63.2003 11.1934H62.6273C62.5636 10.7843 62.3281 10.5808 61.9249 10.5808C61.6638 10.5808 61.4644 10.6751 61.3285 10.8657C61.1927 11.0563 61.1227 11.3348 61.1163 11.701V11.9624C61.1163 12.3286 61.1927 12.6113 61.3455 12.8148C61.4983 13.0162 61.7105 13.119 61.9822 13.119C62.2814 13.119 62.4936 13.0504 62.6188 12.9134V12.2494H61.927V11.8017H63.2003V13.1018H63.2045Z" fill="#282828"/>
<path d="M65.7259 12.7526H64.425L64.1533 13.5408H63.5464L64.8155 10.1523H65.3396L66.6108 13.5408H65.9996L65.7259 12.7526ZM64.5884 12.2771H65.5625L65.0765 10.872L64.5884 12.2771Z" fill="#282828"/>
<path d="M69.6541 13.5408H69.0705L67.5743 11.1376V13.5429H66.9907V10.1523H67.5743L69.0747 12.5662V10.1523H69.6541V13.5408Z" fill="#282828"/>
<path d="M72.7693 10.6278H71.7231V13.5429H71.1437V10.6278H70.106V10.1523H72.7693V10.6278Z" fill="#282828"/>
<path d="M75.1718 12.0286H73.7923V13.0717H75.4052V13.5429H73.2087V10.1523H75.3882V10.6278H73.7923V11.5638H75.1718V12.0286Z" fill="#282828"/>
<path d="M55.4036 20.7612C55.3696 21.1232 55.2381 21.4038 55.0067 21.6073C54.7754 21.8107 54.4698 21.9114 54.0857 21.9114C53.8183 21.9114 53.5828 21.8471 53.379 21.7186C53.1753 21.5901 53.0183 21.4081 52.9079 21.1725C52.7976 20.9368 52.7403 20.6627 52.7339 20.35V20.033C52.7339 19.7138 52.7912 19.4311 52.9015 19.1891C53.014 18.9449 53.1753 18.7586 53.3854 18.6258C53.5955 18.493 53.8374 18.4287 54.1133 18.4287C54.4847 18.4287 54.7818 18.5294 55.0089 18.7329C55.2359 18.9363 55.3654 19.2212 55.4036 19.5939H54.8221C54.7945 19.3497 54.7245 19.1741 54.612 19.067C54.4995 18.9599 54.334 18.9042 54.1154 18.9042C53.8608 18.9042 53.6676 18.9984 53.5297 19.1848C53.3939 19.3711 53.3238 19.6474 53.3217 20.0073V20.3071C53.3217 20.6734 53.3875 20.954 53.517 21.1468C53.6464 21.3395 53.8374 21.4359 54.0878 21.4359C54.317 21.4359 54.4889 21.3845 54.6035 21.2795C54.7181 21.1746 54.7924 21.0032 54.8221 20.7612H55.4036Z" fill="#282828"/>
<path d="M58.6041 20.2579C58.6041 20.5899 58.5468 20.8812 58.4343 21.1318C58.3197 21.3824 58.1584 21.5751 57.9462 21.7101C57.734 21.845 57.492 21.9114 57.2161 21.9114C56.9445 21.9114 56.7005 21.845 56.4882 21.7101C56.276 21.5751 56.1105 21.3845 55.9938 21.136C55.8771 20.8876 55.8197 20.6006 55.8176 20.2772V20.0865C55.8176 19.7567 55.8749 19.4654 55.9916 19.2105C56.1084 18.9578 56.2718 18.765 56.4819 18.63C56.6941 18.4951 56.936 18.4287 57.2098 18.4287C57.4835 18.4287 57.7255 18.4951 57.9377 18.6279C58.1499 18.7607 58.3112 18.9513 58.4279 19.1998C58.5425 19.4482 58.6019 19.7395 58.6041 20.0694V20.2579ZM58.0205 20.0822C58.0205 19.7074 57.9504 19.4183 57.8104 19.2191C57.6682 19.0199 57.4708 18.9192 57.2119 18.9192C56.9594 18.9192 56.762 19.0199 56.6198 19.2191C56.4776 19.4183 56.4055 19.701 56.4012 20.0651V20.26C56.4012 20.6327 56.4734 20.9197 56.6177 21.1232C56.762 21.3267 56.9615 21.4273 57.2161 21.4273C57.4751 21.4273 57.6724 21.3288 57.8125 21.1296C57.9525 20.9304 58.0205 20.6413 58.0205 20.26V20.0822Z" fill="#282828"/>
<path d="M59.9409 18.4757L60.9086 21.0738L61.8742 18.4757H62.6276V21.8642H62.0461V20.7461L62.1034 19.2511L61.1123 21.862H60.6943L59.7053 19.2532L59.7626 20.7461V21.8642H59.1812V18.4757H59.9409Z" fill="#282828"/>
<path d="M65.2548 20.4291H63.9029V21.8663H63.3193V18.4757H65.4521V18.9512H63.9029V19.96H65.2548V20.4291Z" fill="#282828"/>
<path d="M68.595 20.2579C68.595 20.5899 68.5377 20.8812 68.4252 21.1318C68.3106 21.3824 68.1494 21.5751 67.9371 21.7101C67.7249 21.845 67.483 21.9114 67.2071 21.9114C66.9355 21.9114 66.6914 21.845 66.4792 21.7101C66.267 21.5751 66.1015 21.3845 65.9847 21.136C65.868 20.8876 65.8107 20.6006 65.8086 20.2772V20.0865C65.8086 19.7567 65.8659 19.4654 65.9826 19.2105C66.0993 18.9578 66.2627 18.765 66.4728 18.63C66.6851 18.4951 66.927 18.4287 67.2007 18.4287C67.4745 18.4287 67.7164 18.4951 67.9286 18.6279C68.1409 18.7607 68.3021 18.9513 68.4189 19.1998C68.5335 19.4482 68.5929 19.7395 68.595 20.0694V20.2579ZM68.0114 20.0822C68.0114 19.7074 67.9414 19.4183 67.8013 19.2191C67.6591 19.0199 67.4618 18.9192 67.2029 18.9192C66.9503 18.9192 66.753 19.0199 66.6108 19.2191C66.4686 19.4183 66.3964 19.701 66.3922 20.0651V20.26C66.3922 20.6327 66.4643 20.9197 66.6087 21.1232C66.753 21.3267 66.9524 21.4273 67.2071 21.4273C67.466 21.4273 67.6634 21.3288 67.8034 21.1296C67.9435 20.9304 68.0114 20.6413 68.0114 20.26V20.0822Z" fill="#282828"/>
<path d="M70.4095 20.5619H69.7601V21.8663H69.1765V18.4757H70.3564C70.7448 18.4757 71.0419 18.5635 71.2541 18.7392C71.4642 18.9148 71.5703 19.1697 71.5703 19.5017C71.5703 19.7287 71.5152 19.9193 71.4069 20.0714C71.2987 20.2235 71.148 20.3413 70.9528 20.4248L71.7062 21.8363V21.8663H71.0801L70.4095 20.5619ZM69.7601 20.0864H70.3607C70.558 20.0864 70.7108 20.0371 70.8212 19.9365C70.9316 19.8358 70.9867 19.6987 70.9867 19.5252C70.9867 19.3432 70.9358 19.2039 70.8339 19.1033C70.7321 19.0048 70.5793 18.9533 70.3755 18.9491H69.7601V20.0864Z" fill="#282828"/>
<path d="M74.4353 18.9512H73.3891V21.8663H72.8097V18.9512H71.772V18.4757H74.4353V18.9512Z" fill="#282828"/>
<path d="M76.4788 21.0759H75.1779L74.9063 21.8642H74.2993L75.5684 18.4757H76.0926L77.3637 21.8642H76.7547L76.4788 21.0759ZM75.3413 20.6005H76.3154L75.8294 19.1954L75.3413 20.6005Z" fill="#282828"/>
<path d="M77.7417 21.8642V18.4757H78.8919C79.2718 18.4757 79.5604 18.5528 79.7599 18.707C79.9573 18.8612 80.057 19.0904 80.057 19.3946C80.057 19.5488 80.0146 19.6902 79.9318 19.8144C79.849 19.9386 79.7281 20.035 79.5668 20.1035C79.7472 20.1528 79.8894 20.247 79.987 20.3841C80.0867 20.5212 80.1355 20.6861 80.1355 20.8789C80.1355 21.198 80.0337 21.4422 79.8321 21.6114C79.6304 21.7828 79.3397 21.8684 78.9641 21.8684H77.7417V21.8642ZM78.3253 19.9022H78.8983C79.0787 19.9022 79.2209 19.8615 79.3249 19.778C79.4267 19.6944 79.4776 19.5766 79.4776 19.4246C79.4776 19.2575 79.431 19.1354 79.3355 19.0604C79.2421 18.9855 79.0935 18.9491 78.894 18.9491H78.3274V19.9022H78.3253ZM78.3253 20.3349V21.3929H78.9726C79.1551 21.3929 79.2994 21.348 79.4012 21.2559C79.5031 21.1638 79.5562 21.0374 79.5562 20.8746C79.5562 20.5233 79.3779 20.3413 79.0214 20.3349H78.3253Z" fill="#282828"/>
<path d="M81.3048 21.3951H82.8285V21.8663H80.7212V18.4757H81.3048V21.3951Z" fill="#282828"/>
<path d="M85.2391 20.352H83.8597V21.3951H85.4726V21.8663H83.2761V18.4757H85.4556V18.9512H83.8597V19.8872H85.2391V20.352Z" fill="#282828"/>
<path d="M46.0491 28.3049L42.7448 32.5586L39.2284 37.0909L31.5164 27.1461H27.0747L39.2284 42.8011L43.6171 37.153L46.0491 34.0151V46.4766V50H49.5401V46.4766V27.1461H46.9446L46.0491 28.3049Z" fill="#282828"/>
<path d="M49.5401 0H3.49098H0V46.4766V50H3.49098H40.3001L38.4241 47.5797L37.5646 46.4766H3.49098V3.52339H46.0491V24.7987H47.142H49.5401V3.52339V0Z" fill="#ED8E1D"/>
<path d="M73.6075 27.1461H51.938V30.8066H73.6075V27.1461Z" fill="#282828"/>
<path d="M55.5648 46.3417V40.4044H73.6075V36.744H55.5648V36.7418H51.9401V36.744H51.938V40.4044H51.9401V46.3417V50H55.5648H73.6096V46.3417H55.5648Z" fill="#282828"/>
<path d="M97.9999 50H76.0078V27.1461H97.9999V30.8066H79.6346V46.3395H97.9999V50Z" fill="#282828"/>
</svg>
