<svg width="18" height="18" viewBox="0 0 18 18" fill="none" xmlns="http://www.w3.org/2000/svg">
<path d="M6.68221 2.4975C6.53971 2.4975 6.39721 2.55 6.28471 2.6625C6.06721 2.88 6.06721 3.24 6.28471 3.4575L11.1747 8.3475C11.5347 8.7075 11.5347 9.2925 11.1747 9.6525L6.28471 14.5425C6.06721 14.76 6.06721 15.12 6.28471 15.3375C6.50221 15.555 6.86221 15.555 7.07971 15.3375L11.9697 10.4475C12.3522 10.065 12.5697 9.5475 12.5697 9C12.5697 8.4525 12.3597 7.935 11.9697 7.5525L7.07971 2.6625C6.96721 2.5575 6.82471 2.4975 6.68221 2.4975Z" fill="#131313"/>
</svg>
