<svg width="20" height="20" viewBox="0 0 20 20" fill="none" xmlns="http://www.w3.org/2000/svg">
<path d="M6.6665 4.79175C6.32484 4.79175 6.0415 4.50841 6.0415 4.16675V1.66675C6.0415 1.32508 6.32484 1.04175 6.6665 1.04175C7.00817 1.04175 7.2915 1.32508 7.2915 1.66675V4.16675C7.2915 4.50841 7.00817 4.79175 6.6665 4.79175ZM13.3332 4.79175C12.9915 4.79175 12.7082 4.50841 12.7082 4.16675V1.66675C12.7082 1.32508 12.9915 1.04175 13.3332 1.04175C13.6748 1.04175 13.9582 1.32508 13.9582 1.66675V4.16675C13.9582 4.50841 13.6748 4.79175 13.3332 4.79175ZM7.08317 12.0835C6.97484 12.0835 6.8665 12.0585 6.7665 12.0168C6.65817 11.9752 6.57484 11.9168 6.4915 11.8418C6.3415 11.6835 6.24984 11.4752 6.24984 11.2502C6.24984 11.1418 6.27484 11.0335 6.3165 10.9335C6.35817 10.8335 6.4165 10.7418 6.4915 10.6585C6.57484 10.5835 6.65817 10.5252 6.7665 10.4835C7.0665 10.3585 7.4415 10.4252 7.67484 10.6585C7.82484 10.8168 7.9165 11.0335 7.9165 11.2502C7.9165 11.3002 7.90817 11.3585 7.89984 11.4168C7.8915 11.4668 7.87484 11.5168 7.84984 11.5668C7.83317 11.6168 7.80817 11.6668 7.77484 11.7168C7.74984 11.7585 7.70817 11.8002 7.67484 11.8418C7.5165 11.9918 7.29984 12.0835 7.08317 12.0835ZM9.99984 12.0833C9.8915 12.0833 9.78317 12.0583 9.68317 12.0167C9.57484 11.975 9.4915 11.9167 9.40817 11.8417C9.25817 11.6833 9.1665 11.475 9.1665 11.25C9.1665 11.1417 9.1915 11.0333 9.23317 10.9333C9.27484 10.8333 9.33317 10.7417 9.40817 10.6583C9.4915 10.5833 9.57484 10.525 9.68317 10.4833C9.98317 10.35 10.3582 10.425 10.5915 10.6583C10.7415 10.8167 10.8332 11.0333 10.8332 11.25C10.8332 11.3 10.8248 11.3583 10.8165 11.4167C10.8082 11.4667 10.7915 11.5167 10.7665 11.5667C10.7498 11.6167 10.7248 11.6667 10.6915 11.7167C10.6665 11.7583 10.6248 11.8 10.5915 11.8417C10.4332 11.9917 10.2165 12.0833 9.99984 12.0833ZM12.9165 12.0833C12.8082 12.0833 12.6998 12.0583 12.5998 12.0167C12.4915 11.975 12.4082 11.9167 12.3248 11.8417C12.2915 11.8 12.2582 11.7583 12.2248 11.7167C12.1915 11.6667 12.1665 11.6167 12.1498 11.5667C12.1248 11.5167 12.1082 11.4667 12.0998 11.4167C12.0915 11.3583 12.0832 11.3 12.0832 11.25C12.0832 11.0333 12.1748 10.8167 12.3248 10.6583C12.4082 10.5833 12.4915 10.525 12.5998 10.4833C12.9082 10.35 13.2748 10.425 13.5082 10.6583C13.6582 10.8167 13.7498 11.0333 13.7498 11.25C13.7498 11.3 13.7415 11.3583 13.7332 11.4167C13.7248 11.4667 13.7082 11.5167 13.6832 11.5667C13.6665 11.6167 13.6415 11.6667 13.6082 11.7167C13.5832 11.7583 13.5415 11.8 13.5082 11.8417C13.3498 11.9917 13.1332 12.0833 12.9165 12.0833ZM7.08317 15C6.97484 15 6.8665 14.9751 6.7665 14.9334C6.6665 14.8917 6.57484 14.8333 6.4915 14.7583C6.3415 14.6 6.24984 14.3833 6.24984 14.1667C6.24984 14.0583 6.27484 13.95 6.3165 13.85C6.35817 13.7417 6.4165 13.6501 6.4915 13.5751C6.79984 13.2667 7.3665 13.2667 7.67484 13.5751C7.82484 13.7334 7.9165 13.95 7.9165 14.1667C7.9165 14.3833 7.82484 14.6 7.67484 14.7583C7.5165 14.9083 7.29984 15 7.08317 15ZM9.99984 15C9.78317 15 9.5665 14.9083 9.40817 14.7583C9.25817 14.6 9.1665 14.3833 9.1665 14.1667C9.1665 14.0583 9.1915 13.95 9.23317 13.85C9.27484 13.7417 9.33317 13.6501 9.40817 13.5751C9.7165 13.2667 10.2832 13.2667 10.5915 13.5751C10.6665 13.6501 10.7248 13.7417 10.7665 13.85C10.8082 13.95 10.8332 14.0583 10.8332 14.1667C10.8332 14.3833 10.7415 14.6 10.5915 14.7583C10.4332 14.9083 10.2165 15 9.99984 15ZM12.9165 15C12.6998 15 12.4832 14.9083 12.3248 14.7583C12.2498 14.6833 12.1915 14.5917 12.1498 14.4833C12.1082 14.3833 12.0832 14.275 12.0832 14.1667C12.0832 14.0583 12.1082 13.95 12.1498 13.85C12.1915 13.7417 12.2498 13.65 12.3248 13.575C12.5165 13.3833 12.8082 13.2917 13.0748 13.35C13.1332 13.3583 13.1832 13.375 13.2332 13.4C13.2832 13.4167 13.3332 13.4417 13.3832 13.475C13.4248 13.5 13.4665 13.5417 13.5082 13.575C13.6582 13.7333 13.7498 13.95 13.7498 14.1667C13.7498 14.3833 13.6582 14.6 13.5082 14.7583C13.3498 14.9083 13.1332 15 12.9165 15ZM17.0832 8.19995H2.9165C2.57484 8.19995 2.2915 7.91662 2.2915 7.57495C2.2915 7.23328 2.57484 6.94995 2.9165 6.94995H17.0832C17.4248 6.94995 17.7082 7.23328 17.7082 7.57495C17.7082 7.91662 17.4248 8.19995 17.0832 8.19995Z" fill="#282828"/>
<path d="M13.3333 18.9584H6.66667C3.625 18.9584 1.875 17.2084 1.875 14.1667V7.08342C1.875 4.04175 3.625 2.29175 6.66667 2.29175H13.3333C16.375 2.29175 18.125 4.04175 18.125 7.08342V14.1667C18.125 17.2084 16.375 18.9584 13.3333 18.9584ZM6.66667 3.54175C4.28333 3.54175 3.125 4.70008 3.125 7.08342V14.1667C3.125 16.5501 4.28333 17.7084 6.66667 17.7084H13.3333C15.7167 17.7084 16.875 16.5501 16.875 14.1667V7.08342C16.875 4.70008 15.7167 3.54175 13.3333 3.54175H6.66667Z" fill="#282828"/>
</svg>
