<svg width="34" height="34" viewBox="0 0 34 34" fill="none" xmlns="http://www.w3.org/2000/svg">
<path d="M21.3781 4.7175C21.6472 4.7175 21.9164 4.81667 22.1289 5.02917C22.5397 5.44 22.5397 6.12 22.1289 6.53083L12.8922 15.7675C12.2122 16.4475 12.2122 17.5525 12.8922 18.2325L22.1289 27.4691C22.5397 27.88 22.5397 28.56 22.1289 28.9708C21.7181 29.3816 21.0381 29.3816 20.6272 28.9708L11.3906 19.7342C10.6681 19.0117 10.2572 18.0342 10.2572 17C10.2572 15.9658 10.6539 14.9883 11.3906 14.2658L20.6272 5.02917C20.8397 4.83083 21.1089 4.7175 21.3781 4.7175Z" fill="#282828"/>
</svg>
