<svg width="34" height="34" viewBox="0 0 34 34" fill="none" xmlns="http://www.w3.org/2000/svg">
<path d="M12.6219 29.2825C12.3528 29.2825 12.0836 29.1833 11.8711 28.9708C11.4603 28.56 11.4603 27.88 11.8711 27.4692L21.1078 18.2325C21.7878 17.5525 21.7878 16.4475 21.1078 15.7675L11.8711 6.53086C11.4603 6.12003 11.4603 5.44003 11.8711 5.02919C12.2819 4.61836 12.9619 4.61836 13.3728 5.02919L22.6094 14.2658C23.3319 14.9883 23.7428 15.9658 23.7428 17C23.7428 18.0342 23.3461 19.0117 22.6094 19.7342L13.3728 28.9708C13.1603 29.1692 12.8911 29.2825 12.6219 29.2825Z" fill="#282828"/>
</svg>
