<svg width="24" height="24" viewBox="0 0 24 24" fill="none" xmlns="http://www.w3.org/2000/svg">
<path d="M15.7123 16.773L7.22706 8.28769C6.93714 7.99778 6.93714 7.51694 7.22706 7.22703C7.51697 6.93712 7.9978 6.93712 8.28772 7.22703L16.773 15.7123C17.0629 16.0022 17.0629 16.4831 16.773 16.773C16.4831 17.0629 16.0023 17.0629 15.7123 16.773Z" fill="#282828"/>
<path d="M7.227 16.773C6.93709 16.4831 6.93709 16.0022 7.227 15.7123L15.7123 7.22703C16.0022 6.93712 16.483 6.93712 16.7729 7.22703C17.0629 7.51694 17.0629 7.99778 16.7729 8.28769L8.28766 16.773C7.99775 17.0629 7.51692 17.0629 7.227 16.773Z" fill="#282828"/>
</svg>
