<svg width="98" height="50" fill="none" xmlns="http://www.w3.org/2000/svg"><path d="M53.492 1.83l.967 2.598.966-2.598h.753v3.388h-.581V4.1l.057-1.495-.99 2.611h-.419l-.989-2.609.057 1.493v1.118h-.581V1.83h.76zm3.994 3.39h-.582V1.83h.581v3.39zm3.38 0h-.583l-1.496-2.406V5.22h-.584V1.83h.584l1.5 2.413V1.83h.58v3.39zm1.305 0h-.581V1.83h.581v3.39zm1.475-3.39l.968 2.597.965-2.598h.754v3.389h-.582V4.1l.058-1.495-.991 2.61H64.4l-.99-2.608.058 1.493v1.118h-.582V1.829h.76zm5.259 2.6h-1.3l-.273.788h-.606l1.269-3.389h.524l1.271 3.389h-.61l-.275-.789zm-1.137-.476h.974l-.486-1.405-.488 1.405zm2.983.795h1.524v.47h-2.107V1.83h.583v2.92zm2.587.471h-.581V1.83h.581v3.39zm2.475-.874A.416.416 0 0075.658 4c-.104-.081-.29-.163-.563-.244a2.637 2.637 0 01-.645-.274c-.305-.195-.458-.448-.458-.759 0-.272.11-.499.331-.674.22-.178.507-.266.86-.266.233 0 .44.043.625.13.185.089.327.21.431.371a.965.965 0 01.157.534h-.581a.532.532 0 00-.166-.416c-.11-.1-.267-.15-.47-.15-.192 0-.34.041-.444.124a.409.409 0 00-.157.345c0 .125.057.227.17.31.112.084.3.164.562.243.26.08.47.167.63.268a1 1 0 01.348.345c.074.13.11.28.11.454a.806.806 0 01-.322.674c-.214.167-.505.25-.872.25-.244 0-.467-.044-.67-.136a1.114 1.114 0 01-.476-.377.95.95 0 01-.17-.56h.584c0 .194.063.341.188.448.126.105.308.159.542.159.203 0 .356-.04.458-.124a.411.411 0 00.153-.33zm3.521-2.041h-1.047V5.22h-.58V2.305H76.67v-.476h2.663v.476zM54.697 12.03h-1.38v1.043h1.613v.47h-2.196v-3.39h2.18v.476h-1.596v.936h1.379v.464zm1.293 1.042h1.523v.47h-2.107v-3.39h.583v2.92zm3.934-1.043h-1.38v1.043h1.613v.47h-2.196v-3.39h2.18v.476h-1.596v.936h1.379v.465zm3.281 1.073c-.121.16-.29.28-.505.364a2.086 2.086 0 01-.735.124 1.43 1.43 0 01-.747-.193 1.275 1.275 0 01-.5-.552 1.963 1.963 0 01-.185-.84v-.268c0-.511.12-.912.365-1.199.244-.287.581-.433 1.016-.433.374 0 .67.095.89.28.22.187.352.457.396.808h-.573c-.063-.409-.299-.612-.702-.612-.261 0-.46.094-.596.285-.136.19-.206.469-.213.835v.261c0 .367.077.65.23.853a.756.756 0 00.636.304c.3 0 .512-.069.637-.206v-.664h-.692v-.447H63.2v1.3h.005zm2.521-.349h-1.301l-.272.788h-.607l1.27-3.389h.524l1.27 3.389H66l-.274-.788zm-1.138-.476h.975l-.487-1.405-.488 1.405zm5.066 1.263h-.584l-1.496-2.402v2.405h-.583v-3.39h.583l1.5 2.413v-2.414h.58v3.389zm3.116-2.912h-1.047v2.915h-.58v-2.915h-1.037v-.476h2.663v.476zm2.402 1.401h-1.38v1.043h1.613v.47H73.21v-3.39h2.18v.476h-1.597v.936h1.38v.465zm-19.768 8.732c-.034.362-.166.643-.397.846-.232.204-.537.304-.921.304a1.3 1.3 0 01-.707-.192 1.259 1.259 0 01-.471-.547 2.021 2.021 0 01-.174-.822v-.317c0-.32.057-.602.167-.844a1.28 1.28 0 01.484-.563 1.33 1.33 0 01.728-.197c.372 0 .669.1.896.304.227.203.356.488.395.86h-.582c-.028-.243-.098-.419-.21-.526-.113-.107-.278-.163-.497-.163a.684.684 0 00-.585.28c-.136.187-.206.463-.208.823v.3c0 .366.066.647.195.84.13.193.32.289.57.289.23 0 .402-.052.516-.157.115-.104.19-.276.22-.518h.58zm3.2-.503c0 .332-.057.623-.17.874-.114.25-.276.443-.488.578a1.328 1.328 0 01-.73.201 1.33 1.33 0 01-.728-.2 1.333 1.333 0 01-.494-.575 2.032 2.032 0 01-.176-.859v-.19c0-.33.057-.622.174-.877.116-.252.28-.445.49-.58.212-.135.454-.201.728-.201.273 0 .515.066.728.199.212.133.373.323.49.572.114.248.174.54.176.87v.188zm-.584-.176c0-.375-.07-.664-.21-.863a.691.691 0 00-.598-.3c-.253 0-.45.1-.592.3-.142.2-.214.482-.219.846v.195c0 .373.072.66.217.863a.692.692 0 00.598.304.683.683 0 00.596-.297c.14-.2.209-.489.209-.87v-.178zm1.92-1.606l.969 2.598.965-2.598h.754v3.388h-.582v-1.118l.057-1.495-.99 2.611h-.419l-.989-2.609.058 1.493v1.118h-.582v-3.388h.76zm5.315 1.954h-1.352v1.436h-.584v-3.39h2.133v.475h-1.55v1.009h1.353v.47zm3.34-.172c0 .332-.057.623-.17.874-.114.25-.276.443-.488.578a1.327 1.327 0 01-.73.201 1.33 1.33 0 01-.728-.2 1.334 1.334 0 01-.494-.575 2.032 2.032 0 01-.176-.859v-.19c0-.33.057-.622.174-.877.116-.252.28-.445.49-.58.212-.135.454-.201.728-.201.274 0 .515.066.728.199.212.133.373.323.49.572.115.248.174.54.176.87v.188zm-.584-.176c0-.375-.07-.664-.21-.863a.691.691 0 00-.598-.3c-.253 0-.45.1-.592.3-.142.2-.215.482-.219.846v.195c0 .373.072.66.217.863a.692.692 0 00.598.304.683.683 0 00.596-.297c.14-.2.208-.489.208-.87v-.178zm2.399.48h-.65v1.304h-.584v-3.39h1.18c.389 0 .686.088.898.263.21.176.316.43.316.763a.96.96 0 01-.163.57c-.108.152-.259.27-.454.353l.753 1.411v.03h-.626l-.67-1.304zm-.65-.476h.6c.198 0 .35-.049.461-.15.11-.1.166-.237.166-.41 0-.183-.051-.322-.153-.423-.102-.098-.255-.15-.459-.154h-.615v1.137zm4.675-1.135H73.39v2.915h-.58v-2.915h-1.037v-.475h2.663v.475zm2.044 2.125h-1.301l-.272.788H74.3l1.27-3.388h.524l1.27 3.388h-.608l-.276-.788zM75.34 20.6h.974l-.486-1.405-.488 1.405zm2.402 1.264v-3.388h1.15c.38 0 .668.077.868.231.197.154.297.383.297.688a.744.744 0 01-.125.42.798.798 0 01-.365.288c.18.05.322.144.42.281.1.137.148.302.148.495 0 .319-.101.563-.303.732-.202.172-.492.257-.868.257h-1.222v-.004zm.583-1.962h.573c.18 0 .323-.04.427-.124a.432.432 0 00.153-.353c0-.168-.047-.29-.142-.365-.094-.075-.242-.11-.442-.11h-.567v.952h-.002zm0 .433v1.058h.648c.182 0 .326-.045.428-.137a.488.488 0 00.155-.381c0-.352-.178-.534-.535-.54h-.696zm2.98 1.06h1.523v.471h-2.107v-3.39h.584v2.92zm3.935-1.043h-1.38v1.043h1.613v.471h-2.197v-3.39h2.18v.475H83.86v.936h1.38v.465zm-39.19 7.953l-3.305 4.254-3.517 4.532-7.712-9.945h-4.441l12.153 15.655 4.39-5.648 2.431-3.138V50h3.491V27.147h-2.595l-.896 1.158z" fill="#282828"/><path d="M49.54 0H0v50h40.301l-1.877-2.42-.86-1.103H3.492V3.523H46.05V24.8h3.491V0z" fill="#ED8E1D"/><path d="M73.608 27.146h-21.67v3.66h21.67v-3.66zM55.565 46.342v-5.938h18.043v-3.66H55.565v-.002H51.94v.002h-.002v3.66h.002V50h21.67v-3.658H55.565zM98 50H76.008V27.146H98v3.66H79.635V46.34H98V50z" fill="#282828"/></svg>