<svg width="24" height="24" fill="none" xmlns="http://www.w3.org/2000/svg"><path d="M8.602 3.75c-2.664 0-4.852 2.186-4.852 4.852v6.796c0 2.663 2.186 4.852 4.852 4.852h6.796c2.663 0 4.852-2.186 4.852-4.852V8.602c0-2.664-2.186-4.852-4.852-4.852H8.602zm0 1.5h6.796a3.347 3.347 0 013.352 3.352v6.796a3.347 3.347 0 01-3.352 3.352H8.602a3.347 3.347 0 01-3.352-3.352V8.602A3.347 3.347 0 018.602 5.25zm7.828 1.64a.676.676 0 00-.68.68c0 .378.302.68.68.68.378 0 .68-.302.68-.68a.676.676 0 00-.68-.68zM12 7.5A4.512 4.512 0 007.5 12c0 2.476 2.024 4.5 4.5 4.5s4.5-2.024 4.5-4.5-2.024-4.5-4.5-4.5zM12 9c1.667 0 3 1.333 3 3s-1.333 3-3 3-3-1.333-3-3 1.333-3 3-3z" fill="#000"/></svg>