<svg width="24" height="24" fill="none" xmlns="http://www.w3.org/2000/svg"><path d="M3.75 3.75v16.5h16.5V3.75H3.75zm1.5 1.5h13.5v13.5H5.25V5.25zm8.767 2.722a2.154 2.154 0 00-2.1 2.644 6.107 6.107 0 01-4.436-2.25 2.124 2.124 0 00-.292 1.085c0 .72.36 1.393.958 1.792a2.15 2.15 0 01-.97-.271v.025c0 1.046.737 1.913 1.722 2.113-.341.09-.64.09-.971.04a2.154 2.154 0 002.011 1.493 4.312 4.312 0 01-2.67.918c-.177 0-.345-.005-.519-.025a6.1 6.1 0 003.305.964c3.957 0 6.123-3.278 6.123-6.123 0-.092 0-.186-.008-.278a4.51 4.51 0 001.078-1.117c-.387.168-.805.29-1.239.336a2.14 2.14 0 00.945-1.185 4.23 4.23 0 01-1.365.518 2.145 2.145 0 00-1.572-.68z" fill="#000"/></svg>