<svg width="20" height="20" fill="none" xmlns="http://www.w3.org/2000/svg"><path d="M6.667 4.792a.63.63 0 01-.625-.625v-2.5a.63.63 0 01.625-.625.63.63 0 01.625.625v2.5a.63.63 0 01-.625.625zm6.666 0a.63.63 0 01-.625-.625v-2.5a.63.63 0 01.625-.625.63.63 0 01.625.625v2.5a.63.63 0 01-.625.625zm-6.25 7.292a.829.829 0 01-.317-.067.86.86 0 01-.274-.175.86.86 0 01-.242-.592.83.83 0 01.066-.316c.042-.1.1-.192.176-.275a.86.86 0 01.274-.176.851.851 0 01.909.175.88.88 0 01.242.592c0 .05-.009.108-.017.167a.53.53 0 01-.05.15.631.631 0 01-.075.15c-.025.041-.067.083-.1.125a.876.876 0 01-.592.242zm2.917 0a.83.83 0 01-.317-.067.86.86 0 01-.275-.175.86.86 0 01-.242-.592.83.83 0 01.067-.317c.042-.1.1-.191.175-.275a.86.86 0 01.275-.175.835.835 0 01.909.175c.15.159.241.375.241.592 0 .05-.008.108-.017.167a.529.529 0 01-.05.15.634.634 0 01-.075.15c-.025.041-.066.083-.1.125a.876.876 0 01-.591.241zm2.916 0a.831.831 0 01-.316-.067.862.862 0 01-.275-.175l-.1-.125a.634.634 0 01-.075-.15.532.532 0 01-.05-.15c-.008-.059-.017-.117-.017-.167 0-.217.092-.433.242-.592a.862.862 0 01.275-.175.833.833 0 01.908.175c.15.159.242.375.242.592 0 .05-.008.108-.017.167a.532.532 0 01-.05.15.634.634 0 01-.075.15c-.025.041-.067.083-.1.125a.876.876 0 01-.591.241zM7.083 15a.829.829 0 01-.317-.067.963.963 0 01-.274-.175.876.876 0 01-.242-.591.83.83 0 01.066-.317c.042-.108.1-.2.176-.275.308-.308.875-.308 1.183 0 .15.158.242.375.242.592a.876.876 0 01-.242.591.876.876 0 01-.592.242zM10 15a.876.876 0 01-.592-.242.876.876 0 01-.242-.591.83.83 0 01.067-.317c.042-.108.1-.2.175-.275.309-.308.875-.308 1.184 0a.778.778 0 01.175.275.84.84 0 01.066.317.876.876 0 01-.242.591A.876.876 0 0110 15zm2.916 0a.876.876 0 01-.591-.242.778.778 0 01-.175-.275.83.83 0 01-.067-.316.83.83 0 01.067-.317c.041-.108.1-.2.175-.275a.832.832 0 01.908-.175c.05.017.1.042.15.075.042.025.084.067.125.1.15.158.242.375.242.592a.876.876 0 01-.242.591.876.876 0 01-.591.242zm4.167-6.8H2.917a.63.63 0 01-.625-.625.63.63 0 01.625-.625h14.166a.63.63 0 01.625.625.63.63 0 01-.625.625z" fill="#282828"/><path d="M13.333 18.958H6.667c-3.042 0-4.792-1.75-4.792-4.791V7.083c0-3.041 1.75-4.791 4.792-4.791h6.666c3.042 0 4.792 1.75 4.792 4.791v7.084c0 3.041-1.75 4.791-4.792 4.791zM6.667 3.542c-2.384 0-3.542 1.158-3.542 3.541v7.084c0 2.383 1.158 3.541 3.542 3.541h6.666c2.384 0 3.542-1.158 3.542-3.541V7.083c0-2.383-1.158-3.541-3.542-3.541H6.667z" fill="#282828"/></svg>